<mxfile host="app.diagrams.net" modified="2022-07-01T00:32:06.399Z" agent="5.0 (Macintosh; Intel Mac OS X 10_15_7) AppleWebKit/605.1.15 (KHTML, like Gecko) Version/15.5 Safari/605.1.15" etag="KnMyxrxZygNNary3GzG0" version="20.0.4" type="github">
  <diagram id="yJlJ7mEp0fNVplh_2X6F" name="Page-1">
    <mxGraphModel dx="770" dy="1704" grid="1" gridSize="10" guides="1" tooltips="1" connect="1" arrows="1" fold="1" page="1" pageScale="1" pageWidth="827" pageHeight="1169" math="0" shadow="0">
      <root>
        <mxCell id="0" />
        <mxCell id="1" parent="0" />
        <mxCell id="FxuBHbc18nJ3sRIm5NDL-1" value="" style="shape=link;html=1;rounded=0;sketch=1;curved=1;" edge="1" parent="1">
          <mxGeometry width="100" relative="1" as="geometry">
            <mxPoint x="40" y="240" as="sourcePoint" />
            <mxPoint x="780" y="240" as="targetPoint" />
          </mxGeometry>
        </mxCell>
        <mxCell id="FxuBHbc18nJ3sRIm5NDL-2" value="" style="endArrow=classic;html=1;rounded=0;sketch=1;curved=1;" edge="1" parent="1">
          <mxGeometry width="50" height="50" relative="1" as="geometry">
            <mxPoint x="60" y="220" as="sourcePoint" />
            <mxPoint x="60" y="270" as="targetPoint" />
          </mxGeometry>
        </mxCell>
        <mxCell id="FxuBHbc18nJ3sRIm5NDL-4" value="3-4个月" style="edgeLabel;html=1;align=center;verticalAlign=middle;resizable=0;points=[];" vertex="1" connectable="0" parent="FxuBHbc18nJ3sRIm5NDL-2">
          <mxGeometry x="-0.56" relative="1" as="geometry">
            <mxPoint y="-31" as="offset" />
          </mxGeometry>
        </mxCell>
        <mxCell id="FxuBHbc18nJ3sRIm5NDL-7" value="" style="endArrow=classic;html=1;rounded=0;sketch=1;curved=1;" edge="1" parent="1">
          <mxGeometry width="50" height="50" relative="1" as="geometry">
            <mxPoint x="260" y="220" as="sourcePoint" />
            <mxPoint x="260" y="270" as="targetPoint" />
          </mxGeometry>
        </mxCell>
        <mxCell id="FxuBHbc18nJ3sRIm5NDL-8" value="半年" style="edgeLabel;html=1;align=center;verticalAlign=middle;resizable=0;points=[];" vertex="1" connectable="0" parent="FxuBHbc18nJ3sRIm5NDL-7">
          <mxGeometry x="-0.56" relative="1" as="geometry">
            <mxPoint y="-31" as="offset" />
          </mxGeometry>
        </mxCell>
        <mxCell id="FxuBHbc18nJ3sRIm5NDL-9" value="" style="endArrow=classic;html=1;rounded=0;sketch=1;curved=1;" edge="1" parent="1">
          <mxGeometry width="50" height="50" relative="1" as="geometry">
            <mxPoint x="480" y="220" as="sourcePoint" />
            <mxPoint x="480" y="270" as="targetPoint" />
          </mxGeometry>
        </mxCell>
        <mxCell id="FxuBHbc18nJ3sRIm5NDL-10" value="9个月" style="edgeLabel;html=1;align=center;verticalAlign=middle;resizable=0;points=[];" vertex="1" connectable="0" parent="FxuBHbc18nJ3sRIm5NDL-9">
          <mxGeometry x="-0.56" relative="1" as="geometry">
            <mxPoint y="-31" as="offset" />
          </mxGeometry>
        </mxCell>
        <mxCell id="FxuBHbc18nJ3sRIm5NDL-11" value="" style="endArrow=classic;html=1;rounded=0;sketch=1;curved=1;" edge="1" parent="1">
          <mxGeometry width="50" height="50" relative="1" as="geometry">
            <mxPoint x="710" y="220" as="sourcePoint" />
            <mxPoint x="710" y="270" as="targetPoint" />
          </mxGeometry>
        </mxCell>
        <mxCell id="FxuBHbc18nJ3sRIm5NDL-12" value="1年" style="edgeLabel;html=1;align=center;verticalAlign=middle;resizable=0;points=[];" vertex="1" connectable="0" parent="FxuBHbc18nJ3sRIm5NDL-11">
          <mxGeometry x="-0.56" relative="1" as="geometry">
            <mxPoint y="-31" as="offset" />
          </mxGeometry>
        </mxCell>
        <mxCell id="FxuBHbc18nJ3sRIm5NDL-13" value="MVP" style="text;html=1;strokeColor=none;fillColor=none;align=center;verticalAlign=middle;whiteSpace=wrap;rounded=0;sketch=1;" vertex="1" parent="1">
          <mxGeometry x="30" y="280" width="60" height="30" as="geometry" />
        </mxCell>
        <mxCell id="FxuBHbc18nJ3sRIm5NDL-14" value="V1.0" style="text;html=1;strokeColor=none;fillColor=none;align=center;verticalAlign=middle;whiteSpace=wrap;rounded=0;sketch=1;" vertex="1" parent="1">
          <mxGeometry x="230" y="280" width="60" height="30" as="geometry" />
        </mxCell>
        <mxCell id="FxuBHbc18nJ3sRIm5NDL-15" value="V1.x" style="text;html=1;strokeColor=none;fillColor=none;align=center;verticalAlign=middle;whiteSpace=wrap;rounded=0;sketch=1;" vertex="1" parent="1">
          <mxGeometry x="450" y="280" width="60" height="30" as="geometry" />
        </mxCell>
        <mxCell id="FxuBHbc18nJ3sRIm5NDL-16" value="V2.0" style="text;html=1;strokeColor=none;fillColor=none;align=center;verticalAlign=middle;whiteSpace=wrap;rounded=0;sketch=1;" vertex="1" parent="1">
          <mxGeometry x="680" y="280" width="60" height="30" as="geometry" />
        </mxCell>
        <mxCell id="FxuBHbc18nJ3sRIm5NDL-17" value="内部体验阶段" style="shape=partialRectangle;whiteSpace=wrap;html=1;left=0;right=0;fillColor=none;sketch=1;" vertex="1" parent="1">
          <mxGeometry x="90" y="110" width="120" height="40" as="geometry" />
        </mxCell>
        <mxCell id="FxuBHbc18nJ3sRIm5NDL-18" value="种子用户阶段" style="shape=partialRectangle;whiteSpace=wrap;html=1;left=0;right=0;fillColor=none;sketch=1;" vertex="1" parent="1">
          <mxGeometry x="310" y="110" width="120" height="40" as="geometry" />
        </mxCell>
        <mxCell id="FxuBHbc18nJ3sRIm5NDL-19" value="动画高校" style="shape=partialRectangle;whiteSpace=wrap;html=1;left=0;right=0;fillColor=none;sketch=1;" vertex="1" parent="1">
          <mxGeometry x="310" y="40" width="120" height="40" as="geometry" />
        </mxCell>
        <mxCell id="FxuBHbc18nJ3sRIm5NDL-20" value="全网运营阶段" style="shape=partialRectangle;whiteSpace=wrap;html=1;left=0;right=0;fillColor=none;sketch=1;" vertex="1" parent="1">
          <mxGeometry x="530" y="110" width="120" height="40" as="geometry" />
        </mxCell>
        <mxCell id="FxuBHbc18nJ3sRIm5NDL-21" value="白板动画" style="shape=partialRectangle;whiteSpace=wrap;html=1;left=0;right=0;fillColor=none;sketch=1;" vertex="1" parent="1">
          <mxGeometry x="50" y="330" width="200" height="40" as="geometry" />
        </mxCell>
        <mxCell id="FxuBHbc18nJ3sRIm5NDL-22" value="商务推广" style="shape=partialRectangle;whiteSpace=wrap;html=1;left=0;right=0;fillColor=none;sketch=1;" vertex="1" parent="1">
          <mxGeometry x="310" y="-40" width="400" height="40" as="geometry" />
        </mxCell>
        <mxCell id="FxuBHbc18nJ3sRIm5NDL-23" value="种子用户不少于5千人" style="shape=partialRectangle;whiteSpace=wrap;html=1;left=0;right=0;fillColor=none;sketch=1;" vertex="1" parent="1">
          <mxGeometry x="270" y="330" width="200" height="40" as="geometry" />
        </mxCell>
        <mxCell id="FxuBHbc18nJ3sRIm5NDL-24" value="注册用户不少于5万人" style="shape=partialRectangle;whiteSpace=wrap;html=1;left=0;right=0;fillColor=none;sketch=1;" vertex="1" parent="1">
          <mxGeometry x="490" y="330" width="210" height="40" as="geometry" />
        </mxCell>
      </root>
    </mxGraphModel>
  </diagram>
</mxfile>
